<?xml version="1.0" encoding="UTF-8" standalone="no"?>
<!DOCTYPE svg PUBLIC "-//W3C//DTD SVG 1.1//EN"
 "http://www.w3.org/Graphics/SVG/1.1/DTD/svg11.dtd">
<!-- Generated by graphviz version 2.44.1 (20200629.0846)
 -->
<!-- Title: [] Pages: 1 -->
<svg width="267pt" height="452pt"
 viewBox="0.00 0.00 266.60 452.00" xmlns="http://www.w3.org/2000/svg" xmlns:xlink="http://www.w3.org/1999/xlink">
<g id="graph0" class="graph" transform="scale(1 1) rotate(0) translate(4 448)">
<title>[]</title>
<polygon fill="white" stroke="transparent" points="-4,4 -4,-448 262.6,-448 262.6,4 -4,4"/>
<text text-anchor="middle" x="129.3" y="-7.8" font-family="Times New Roman,serif" font-size="14.00">(main)hypergraph</text>
<g id="clust1" class="cluster">
<title>cluster_[7]</title>
<polygon fill="none" stroke="black" points="141.6,-31 141.6,-280 250.6,-280 250.6,-31 141.6,-31"/>
<text text-anchor="middle" x="196.1" y="-264.8" font-family="Times New Roman,serif" font-size="14.00">(sub)hypergraph</text>
</g>
<!-- [0] -->
<g id="node1" class="node">
<title>[0]</title>
<ellipse fill="none" stroke="black" cx="103.6" cy="-426" rx="28.7" ry="18"/>
<text text-anchor="middle" x="103.6" y="-422.3" font-family="Times New Roman,serif" font-size="14.00">node</text>
</g>
<!-- [2] -->
<g id="node4" class="node">
<title>[2]</title>
<ellipse fill="none" stroke="black" stroke-dasharray="1,5" cx="103.6" cy="-339" rx="27.9" ry="18"/>
<text text-anchor="middle" x="103.6" y="-335.3" font-family="Times New Roman,serif" font-size="14.00">edge</text>
</g>
<!-- [0]&#45;&gt;[2] -->
<g id="edge1" class="edge">
<title>[0]&#45;&gt;[2]</title>
<path fill="none" stroke="black" d="M103.6,-407.8C103.6,-396.16 103.6,-380.55 103.6,-367.24"/>
<polygon fill="black" stroke="black" points="107.1,-367.18 103.6,-357.18 100.1,-367.18 107.1,-367.18"/>
<text text-anchor="middle" x="113.6" y="-378.8" font-family="Times New Roman,serif" font-size="14.00">link</text>
</g>
<!-- [1] -->
<g id="node2" class="node">
<title>[1]</title>
<ellipse fill="none" stroke="black" cx="28.6" cy="-231" rx="28.7" ry="18"/>
<text text-anchor="middle" x="28.6" y="-227.3" font-family="Times New Roman,serif" font-size="14.00">node</text>
</g>
<!-- [5] -->
<g id="node3" class="node">
<title>[5]</title>
<ellipse fill="none" stroke="black" cx="103.6" cy="-231" rx="28.7" ry="18"/>
<text text-anchor="middle" x="103.6" y="-227.3" font-family="Times New Roman,serif" font-size="14.00">node</text>
</g>
<!-- [2]&#45;&gt;[1] -->
<g id="edge2" class="edge">
<title>[2]&#45;&gt;[1]</title>
<path fill="none" stroke="black" d="M92.53,-322.36C80.18,-304.9 60.04,-276.44 45.67,-256.13"/>
<polygon fill="black" stroke="black" points="48.34,-253.85 39.71,-247.7 42.63,-257.89 48.34,-253.85"/>
<text text-anchor="middle" x="87.6" y="-291.8" font-family="Times New Roman,serif" font-size="14.00">link</text>
</g>
<!-- [2]&#45;&gt;[5] -->
<g id="edge3" class="edge">
<title>[2]&#45;&gt;[5]</title>
<path fill="none" stroke="black" d="M103.6,-320.97C103.6,-304.38 103.6,-278.88 103.6,-259.43"/>
<polygon fill="black" stroke="black" points="107.1,-259.34 103.6,-249.34 100.1,-259.34 107.1,-259.34"/>
<text text-anchor="middle" x="113.6" y="-291.8" font-family="Times New Roman,serif" font-size="14.00">link</text>
</g>
<!-- [7, 0] -->
<g id="node5" class="node">
<title>[7, 0]</title>
<ellipse fill="none" stroke="black" cx="178.6" cy="-231" rx="28.7" ry="18"/>
<text text-anchor="middle" x="178.6" y="-227.3" font-family="Times New Roman,serif" font-size="14.00">node</text>
</g>
<!-- [2]&#45;&gt;[7, 0] -->
<g id="edge4" class="edge">
<title>[2]&#45;&gt;[7, 0]</title>
<path fill="none" stroke="black" d="M114.66,-322.36C127.02,-304.9 147.15,-276.44 161.53,-256.13"/>
<polygon fill="black" stroke="black" points="164.57,-257.89 167.49,-247.7 158.85,-253.85 164.57,-257.89"/>
<text text-anchor="middle" x="148.6" y="-291.8" font-family="Times New Roman,serif" font-size="14.00">link</text>
</g>
<!-- [7, 2] -->
<g id="node7" class="node">
<title>[7, 2]</title>
<ellipse fill="none" stroke="black" stroke-dasharray="1,5" cx="178.6" cy="-144" rx="27.9" ry="18"/>
<text text-anchor="middle" x="178.6" y="-140.3" font-family="Times New Roman,serif" font-size="14.00">edge</text>
</g>
<!-- [7, 0]&#45;&gt;[7, 2] -->
<g id="edge5" class="edge">
<title>[7, 0]&#45;&gt;[7, 2]</title>
<path fill="none" stroke="black" d="M178.6,-212.8C178.6,-201.16 178.6,-185.55 178.6,-172.24"/>
<polygon fill="black" stroke="black" points="182.1,-172.18 178.6,-162.18 175.1,-172.18 182.1,-172.18"/>
<text text-anchor="middle" x="188.6" y="-183.8" font-family="Times New Roman,serif" font-size="14.00">link</text>
</g>
<!-- [7, 1] -->
<g id="node6" class="node">
<title>[7, 1]</title>
<ellipse fill="none" stroke="black" cx="178.6" cy="-57" rx="28.7" ry="18"/>
<text text-anchor="middle" x="178.6" y="-53.3" font-family="Times New Roman,serif" font-size="14.00">node</text>
</g>
<!-- [7, 2]&#45;&gt;[7, 1] -->
<g id="edge6" class="edge">
<title>[7, 2]&#45;&gt;[7, 1]</title>
<path fill="none" stroke="black" d="M178.6,-125.8C178.6,-114.16 178.6,-98.55 178.6,-85.24"/>
<polygon fill="black" stroke="black" points="182.1,-85.18 178.6,-75.18 175.1,-85.18 182.1,-85.18"/>
<text text-anchor="middle" x="188.6" y="-96.8" font-family="Times New Roman,serif" font-size="14.00">link</text>
</g>
</g>
</svg>
